# xmcd
#
# Track frame offsets:
#   150
#   95652
#   184291
#
# Disc length: 3816 seconds
#
# Revision: 0
# Processed by: cddbd v1.5.1PL2 Copyright (c) Steve Scherf et al.
# Submitted via: GXTranscoder 2.0.1939
#
DISCID=230ee603
DTITLE=diverse - Praise 8
DYEAR=1900
DGENRE=Gospel and Religious
TTITLE0=Worship 96 1
TTITLE1=Worship 96 2
TTITLE2=Side B
EXTD=
EXTT0=
EXTT1=
EXTT2=
PLAYORDER=
